<svg xmlns="http://www.w3.org/2000/svg" xmlns:xlink="http://www.w3.org/1999/xlink" width="48" height="48" viewBox="0 0 48 48" id="financial"><defs><linearGradient id="b" x1="906.952" x2="931.379" y1="515.915" y2="546.094" gradientTransform="translate(-1388.719 -793.02) scale(1.53785)" gradientUnits="userSpaceOnUse" xlink:href="#a"></linearGradient><linearGradient id="a"><stop offset="0" stop-color="#ffd800"></stop><stop offset="1" stop-color="#ff6100"></stop></linearGradient></defs><rect width="48" height="48" fill="url(#b)" rx="10.144" ry="10.144"></rect><path fill="#fff" d="m 24,11 c -3.584,0 -6.5,2.916 -6.5,6.5 0,3.584 2.916,6.5 6.5,6.5 3.584,0 6.5,-2.916 6.5,-6.5 C 30.5,13.916 27.584,11 24,11 Z m 0,1 c 3.033,0 5.5,2.467 5.5,5.5 0,3.033 -2.467,5.5 -5.5,5.5 -3.033,0 -5.5,-2.467 -5.5,-5.5 0,-3.033 2.467,-5.5 5.5,-5.5 z m -2,1.992187 c -0.276,0 -0.5,0.224 -0.5,0.5 0,0.276 0.224,0.5 0.5,0.5 l 1,0 c 0.657,0 1.209109,0.426626 1.412109,1.015625 l -2.412109,0 c -0.276,0 -0.5,0.224 -0.5,0.5 0,0.276 0.224,0.5 0.5,0.5 l 2.402344,0 C 24.191344,17.580812 23.645,17.992187 23,17.992187 l -1,0 c -0.276,0 -0.5,0.224001 -0.5,0.500001 0,0.003 9.53e-4,0.0048 0.002,0.0078 -0.002,0.131 0.04453,0.262328 0.144531,0.361328 l 3,3 c 0.098,0.098 0.227469,0.146485 0.355469,0.146484 0.128,0 0.255516,-0.04948 0.353516,-0.146484 0.195,-0.195 0.195,-0.512031 0,-0.707031 l -2.179688,-2.179688 c 1.122,-0.079 2.043532,-0.890797 2.269531,-1.966797 l 0.554688,0 c 0.276,0 0.5,-0.224 0.5,-0.5 0,-0.276 -0.224,-0.5 -0.5,-0.5 l -0.548828,0 c -0.075,-0.378 -0.240844,-0.721578 -0.464844,-1.017578 l 1.013672,0 0,0.002 c 0.276,0 0.5,-0.224 0.5,-0.5 0,-0.276 -0.224,-0.5 -0.5,-0.5 l -3,0 -1,0 z M 13,15 c -1.103,0 -2,0.897 -2,2 l 0,7.5 0,1 c 0,1.408 0.673781,2.754563 1.800781,3.601562 l 2,1.5 C 14.925781,30.694562 15,30.844 15,31 l 0,1 -1.5,0 C 13.224,32 13,32.224 13,32.5 l 0,4 c 0,0.276 0.224,0.5 0.5,0.5 l 9,0 c 0.276,0 0.5,-0.224 0.5,-0.5 l 0,-4 C 23,32.224 22.776,32 22.5,32 l -0.5,0 0,-4.220703 c 0,-1.065 -0.476641,-2.059563 -1.306641,-2.726563 L 16.976562,22.060547 C 16.401562,21.598547 15.646,21.514672 15,21.763672 L 15,17 c 0,-1.103 -0.897,-2 -2,-2 z m 22,0 c -1.103,0 -2,0.897 -2,2 l 0,4.763672 c -0.645,-0.25 -1.399563,-0.166125 -1.976562,0.296875 l -3.71875,2.994141 C 26.475687,25.721688 26,26.714297 26,27.779297 L 26,32 25.5,32 C 25.224,32 25,32.224 25,32.5 l 0,4 c 0,0.276 0.224,0.5 0.5,0.5 l 9,0 c 0.276,0 0.5,-0.224 0.5,-0.5 l 0,-4 C 35,32.224 34.776,32 34.5,32 l -1.5,0 0,-1 c 0,-0.156 0.07422,-0.305438 0.199219,-0.398438 l 2,-1.5 C 36.326219,28.254563 37,26.909 37,25.5 l 0,-1 0,-7.5 c 0,-1.103 -0.897,-2 -2,-2 z m -22,1 c 0.551,0 1,0.449 1,1 l 0,5.5 c 0,0.032 0.01158,0.05984 0.01758,0.08984 -0.509,0.843 -0.335828,1.951937 0.451172,2.585937 l 3.34375,2.691411 c 0.119,0.097 0.1875,0.239578 0.1875,0.392578 l 0,0.230468 c 0,0.276 0.224,0.5 0.5,0.5 0.276,0 0.5,-0.224 0.5,-0.5 l 0,-0.232422 c -10e-4,-0.456 -0.205547,-0.880968 -0.560547,-1.167968 l -3.34375,-2.691406 c -0.429,-0.346001 -0.498344,-0.97625 -0.152344,-1.40625 0.347,-0.429001 0.97625,-0.497344 1.40625,-0.152344 l 3.71875,2.992187 C 20.660359,26.309031 21,27.019297 21,27.779297 L 21,32 l -5,0 0,-1 c 0,-0.47 -0.223609,-0.917219 -0.599609,-1.199219 l -2,-1.5 C 12.523391,27.643781 12,26.596 12,25.5 l 0,-1 0,-7.5 c 0,-0.551 0.449,-1 1,-1 z m 22,0 c 0.551,0 1,0.449 1,1 l 0,7.5 0,1 c 0,1.096 -0.523391,2.143781 -1.400391,2.800781 l -2,1.5 C 32.223609,30.082781 32,30.53 32,31 l 0,1 -5,0 0,-4.220703 c 0,-0.761 0.340594,-1.471266 0.933594,-1.947266 l 3.716797,-2.992187 c 0.43,-0.345 1.06125,-0.27861 1.40625,0.15039 0.346,0.43 0.276656,1.06125 -0.152344,1.40625 l -3.345703,2.69336 C 29.204594,27.375844 29.001,27.800812 29,28.257812 l 0,0.230469 c 0,0.276 0.224,0.5 0.5,0.5 0.276,0 0.5,-0.224 0.5,-0.5 l 0,-0.228515 c 0,-0.153 0.0685,-0.297579 0.1875,-0.392578 l 3.34375,-2.691407 c 0.787,-0.634 0.960172,-1.742937 0.451172,-2.585937 C 33.988422,22.560844 34,22.532 34,22.5 L 34,17 c 0,-0.551 0.449,-1 1,-1 z m -21,17 1.5,0 6,0 0.5,0 0,3 -8,0 0,-3 z m 12,0 0.5,0 6,0 1.5,0 0,3 -8,0 0,-3 z m -5.5,1 A 0.5,0.5 0 0 0 20,34.5 0.5,0.5 0 0 0 20.5,35 0.5,0.5 0 0 0 21,34.5 0.5,0.5 0 0 0 20.5,34 Z m 7,0 A 0.5,0.5 0 0 0 27,34.5 0.5,0.5 0 0 0 27.5,35 0.5,0.5 0 0 0 28,34.5 0.5,0.5 0 0 0 27.5,34 Z"></path></svg>