<svg xmlns="http://www.w3.org/2000/svg" xmlns:xlink="http://www.w3.org/1999/xlink" width="28" height="28" id="car"><defs><linearGradient id="b" x1="992.183" x2="1019.298" y1="516.081" y2="545.959" gradientTransform="translate(-888.245 -462.595) scale(.89708)" gradientUnits="userSpaceOnUse" xlink:href="#a"></linearGradient><linearGradient id="a"><stop offset="0" stop-color="#ff1679"></stop><stop offset="1" stop-color="#ff770b"></stop></linearGradient></defs><rect width="28" height="28" fill="url(#b)" rx="5.917" ry="5.917"></rect><path fill="#fff" d="M11.3 6c-1.233 0-2.248.894-2.49 2.102a.504.504 0 0 0-.003.017l-.642 3.934L8.5 12c-.878 0-1.5.733-1.5 1.5v4c0 .411.146.802.422 1.078S8.089 19 8.5 19H9v.5c0 .417.193.775.459 1.041.266.266.624.459 1.041.459.767 0 1.5-.622 1.5-1.5V19h5v.5c0 .417.193.775.459 1.041.266.266.624.459 1.041.459.767 0 1.5-.622 1.5-1.5V19h.5c.411 0 .802-.146 1.078-.422S22 17.911 22 17.5v-4c0-.417-.193-.775-.459-1.041-.266-.266-.624-.459-1.041-.459h.225l-.631-3.88a.528.528 0 0 0-.004-.018C19.848 6.894 18.833 6 17.6 6h-4.1zm0 1H17.6c.766 0 1.35.506 1.51 1.299l.697 4.281a.5.5 0 0 0 .494.42h.199c.083 0 .225.057.334.166.109.109.166.25.166.334v4c0 .189-.055.297-.129.371-.074.074-.182.129-.371.129h-1a.5.5 0 0 0-.5.5v1c0 .322-.267.5-.5.5a.544.544 0 0 1-.334-.166A.544.544 0 0 1 18 19.5v-1a.5.5 0 0 0-.5-.5h-6a.5.5 0 0 0-.5.5v1c0 .322-.267.5-.5.5a.544.544 0 0 1-.334-.166A.544.544 0 0 1 10 19.5v-1a.5.5 0 0 0-.5-.5h-1c-.189 0-.297-.055-.371-.129C8.055 17.797 8 17.69 8 17.5v-4c0-.233.178-.5.5-.5h.1a.5.5 0 0 0 .494-.42L9.79 8.3C9.95 7.506 10.534 7 11.301 7zm0 1a.5.5 0 0 0-.493.414l-.7 4A.5.5 0 0 0 10.6 13h7.7a.5.5 0 0 0 .493-.586l-.701-4A.5.5 0 0 0 17.6 8h-4.2zm.42 1h5.46l.525 3h-6.51zm-1.22 5c-.411 0-.802.146-1.078.422A1.516 1.516 0 0 0 9 15.5c0 .411.146.802.422 1.078S10.089 17 10.5 17c.767 0 1.5-.622 1.5-1.5 0-.411-.146-.802-.422-1.078A1.516 1.516 0 0 0 10.5 14Zm8 0c-.411 0-.802.146-1.078.422A1.516 1.516 0 0 0 17 15.5c0 .411.146.802.422 1.078S18.089 17 18.5 17c.767 0 1.5-.622 1.5-1.5 0-.411-.146-.802-.422-1.078A1.516 1.516 0 0 0 18.5 14Zm-8 1c.189 0 .297.055.371.129.074.074.129.182.129.371 0 .322-.267.5-.5.5-.189 0-.297-.055-.371-.129-.074-.074-.129-.182-.129-.371s.055-.297.129-.371c.074-.074.182-.129.371-.129Zm8 0c.189 0 .297.055.371.129.074.074.129.182.129.371 0 .322-.267.5-.5.5-.189 0-.297-.055-.371-.129-.074-.074-.129-.182-.129-.371s.055-.297.129-.371c.074-.074.182-.129.371-.129Z" color="#000" font-family="sans-serif" font-weight="400" overflow="visible" style="line-height:normal;text-indent:0;text-align:start;text-decoration-line:none;text-decoration-style:solid;text-decoration-color:#000;text-transform:none;block-progression:tb;isolation:auto;mix-blend-mode:normal"></path></svg>