<svg xmlns="http://www.w3.org/2000/svg" xmlns:xlink="http://www.w3.org/1999/xlink" width="48" height="48" viewBox="0 0 48 48" id="municipal"><defs><linearGradient id="b" x1="1073.403" x2="1097.116" y1="516.451" y2="544.308" gradientTransform="translate(-1643.872 -793.02) scale(1.53785)" gradientUnits="userSpaceOnUse" xlink:href="#a"></linearGradient><linearGradient id="a"><stop offset="0" stop-color="#16ff6a"></stop><stop offset="1" stop-color="#0090a5"></stop></linearGradient></defs><rect width="48" height="48" fill="url(#b)" rx="10.144" ry="10.144"></rect><path fill="#fff" d="m 22.000303,9.9785102 c -0.276,0 -0.5,0.2239998 -0.5,0.4999998 l 0,3.833985 -2,2.666015 -8,0 c -0.205,0 -0.388843,0.124454 -0.464843,0.314454 l -2.0000008,5 c -0.062,0.153999 -0.041219,0.326843 0.050781,0.464843 0.093,0.138 0.2480625,0.220703 0.4140625,0.220703 l 0.5000003,0 0,12 -0.5000003,0 c -0.276,0 -0.5,0.224 -0.5,0.5 0,0.276001 0.224,0.5 0.5,0.5 l 1.0000003,0 7,0 9,0 2,0 c 0.276,0 0.5,-0.223999 0.5,-0.5 0,-0.276 -0.224,-0.501953 -0.5,-0.501953 l -1.5,0 0,-1.5 c 0,-0.276 -0.224,-0.5 -0.5,-0.5 l -0.5,0 0,-10 5.5,0 c 0.276,0 0.5,-0.224 0.5,-0.5 0,-0.276 -0.224,-0.5 -0.5,-0.5 l -5.5,0 0,-1 0.5,0 c 0.189,0 0.362266,-0.10639 0.447266,-0.27539 0.084,-0.169 0.06612,-0.372438 -0.04687,-0.523438 l -1.650396,-2.199219 1.509766,0 5.402343,0 0.873047,2.185547 c 0.078,0.195 0.266844,0.314453 0.464844,0.314453 0.062,0 0.124547,-0.01311 0.185547,-0.03711 0.256,-0.103 0.381297,-0.393436 0.279297,-0.648437 l -1,-2.5 c -0.076,-0.19 -0.258891,-0.314454 -0.462891,-0.314454 l -5.742187,0 -2.259766,0 -2,-2.666014 0,-1.833985 2.492188,0 -0.857422,-1 0.857422,-1 -2.492188,0 c 0,-0.276 -0.224,-0.4999998 -0.5,-0.4999998 z m 0,5.3320318 3.5,4.666015 -7,0 3.5,-4.666015 z m -10.162109,2.666015 6.912109,0 -1.65039,2.201172 c -0.114,0.151 -0.131875,0.354438 -0.04687,0.523438 0.085,0.169 0.258265,0.27539 0.447265,0.27539 l 0.5,0 0,1 -7.761718,0 1.599609,-4 z m 23.162109,2.773438 c -0.128,0 -0.256016,0.04703 -0.353516,0.144531 l -1.5,1.5 c -0.196,0.196 -0.195,0.512031 0,0.707031 0.098,0.098 0.225516,0.146485 0.353516,0.146485 0.128,0 0.255516,-0.04949 0.353516,-0.146485 l 0.646484,-0.644531 0,2.542969 c 0,0.276 0.224,0.5 0.5,0.5 0.276,0 0.5,-0.224 0.5,-0.5 l 0,-2.542969 0.646484,0.644531 c 0.098,0.098 0.225516,0.146485 0.353516,0.146485 0.128,0 0.255516,-0.04949 0.353516,-0.146485 0.195,-0.195 0.195,-0.512031 0,-0.707031 l -1.5,-1.5 c -0.0975,-0.0975 -0.225516,-0.144531 -0.353516,-0.144531 z m -16,0.226562 6,0 0,12 -1.5,0 0,-4.103515 c 0.276,0 0.5,-0.224 0.5,-0.5 0,-0.276 -0.224,-0.5 -0.5,-0.5 l -3,0 c -0.276,0 -0.5,0.224 -0.5,0.5 0,0.276 0.224,0.5 0.5,0.5 l 0,4.103515 -1.5,0 0,-2.492187 0,-2 0,-2 0,-2 0,-3.507813 z m 1.5,1 c -0.276,0 -0.5,0.224 -0.5,0.5 l 0,3 c 0,0.277 0.224,0.5 0.5,0.5 l 3,0 c 0.276,0 0.5,-0.223999 0.5,-0.5 l 0,-3 c 0,-0.276 -0.224,-0.5 -0.5,-0.5 l -3,0 z m -9.5,1 7,0 0,1.007813 -1.5,0 c -0.276,0 -0.5,0.224 -0.5,0.5 l 0,2 c 0,0.276 0.224,0.5 0.5,0.5 l 1.5,0 0,1 -1.5,0 c -0.276,0 -0.5,0.224 -0.5,0.5 l 0,2 c 0,0.276 0.224,0.5 0.5,0.5 l 1.5,0 0,1.992187 -0.5,0 c -0.276,0 -0.5,0.224 -0.5,0.5 l 0,1.5 -6,0 0,-12 z m 10,0 2,0 0,2 -2,0 0,-2 z m -8.5,1.007813 c -0.276,0 -0.5,0.224 -0.5,0.5 l 0,2 c 0,0.276 0.224,0.5 0.5,0.5 l 2,0 c 0.276,0 0.5,-0.224 0.5,-0.5 l 0,-2 c 0,-0.276 -0.224,-0.5 -0.5,-0.5 l -2,0 z m 20.5,0.01563 c -3.309,0 -6,2.691 -6,6 0,3.309 2.691,6 6,6 3.309,0 6,-2.691 6,-6 0,-1.579 -0.641813,-3.127141 -1.757812,-4.244141 -0.195001,-0.195 -0.512032,-0.195 -0.707032,0 -0.195,0.195 -0.195,0.512031 0,0.707031 0.93,0.93 1.464844,2.22011 1.464844,3.53711 0,2.757 -2.243,5 -5,5 -2.757,0 -5,-2.243 -5,-5 0,-2.757 2.243,-5 5,-5 0.276,0 0.5,-0.223999 0.5,-0.5 0,-0.276 -0.224,-0.5 -0.5,-0.5 z m -20,0.984375 1,0 0,1 -1,0 0,-1 z m 4,0 1,0 0,1 -1,0 0,-1 z m 14,1.515625 c -0.276,0 -0.5,0.224 -0.5,0.5 0,0.276001 0.224,0.5 0.5,0.5 l 1,0 c 0.657,0 1.209109,0.426625 1.412109,1.015625 l -2.412109,0 c -0.276,0 -0.5,0.224 -0.5,0.5 0,0.276001 0.224,0.5 0.5,0.5 l 2.402344,0 c -0.211,0.572995 -0.757344,0.98437 -1.402344,0.98437 l -1,0 c -0.276,0 -0.5,0.224 -0.5,0.5 0,0.003 9.53e-4,0.0048 0.002,0.0078 -0.002,0.131 0.04453,0.262328 0.144531,0.361328 l 3,3 c 0.098,0.098 0.227469,0.144532 0.355469,0.144532 0.128,0 0.255516,-0.04753 0.353516,-0.144532 0.195,-0.195 0.195,-0.512031 0,-0.707031 l -2.179688,-2.18164 c 1.122,-0.079 2.043532,-0.890797 2.269531,-1.966797 l 0.554688,0 c 0.276,0 0.5,-0.223999 0.5,-0.5 0,-0.276 -0.224,-0.5 -0.5,-0.5 l -0.548828,0 c -0.075,-0.378 -0.240844,-0.719625 -0.464844,-1.015625 l 1.013672,0 0,0.002 c 0.276,0 0.5,-0.223999 0.5,-0.5 0,-0.276 -0.224,-0.5 -0.5,-0.5 l -3,0 -1,0 z m -18.5,1.48437 c -0.276,0 -0.5,0.224 -0.5,0.5 l 0,2 c 0,0.276 0.224,0.5 0.5,0.5 l 2,0 c 0.276,0 0.5,-0.224 0.5,-0.5 l 0,-2 c 0,-0.276 -0.224,-0.5 -0.5,-0.5 l -2,0 z m 9,0.992187 1,0 0,3.896485 -1,0 0,-3.896485 z m -8.5,0.0078 1,0 0,1 -1,0 0,-1 z m 4,0 1,0 0,1 -1,0 0,-1 z m 1,4.992187 0.5,0 7,0 0.5,0 0,1 -8,0 0,-1 z"></path></svg>