<svg xmlns="http://www.w3.org/2000/svg" xmlns:xlink="http://www.w3.org/1999/xlink" width="48" height="48" viewBox="0 0 48 48" id="laptop"><defs><linearGradient id="b" x1="992.183" x2="1019.298" y1="516.081" y2="545.959" gradientTransform="translate(-1522.705 -793.02) scale(1.53785)" gradientUnits="userSpaceOnUse" xlink:href="#a"></linearGradient><linearGradient id="a"><stop offset="0" stop-color="#ff1679"></stop><stop offset="1" stop-color="#ff770b"></stop></linearGradient></defs><rect width="48" height="48" fill="url(#b)" rx="10.144" ry="10.144"></rect><path fill="#fff" d="M 14.5,14 C 13.121,14 12,15.121 12,16.5 L 12,29 10.5,29 C 10.224,29 10,29.224 10,29.5 l 0,1 c 0,1.379 1.121,2.5 2.5,2.5 l 23,0 c 1.379,0 2.5,-1.121 2.5,-2.5 l 0,-1 C 38,29.224 37.776,29 37.5,29 l -0.591797,0 C 36.964203,28.843 37,28.676 37,28.5 l 0,-9 c 0,-0.651 -0.419,-1.201203 -1,-1.408203 L 36,16.5 C 36,15.121 34.879,14 33.5,14 l -19,0 z m 0,1 19,0 c 0.827,0 1.5,0.673 1.5,1.5 l 0,1.5 -1,0 0,-1.5 C 34,16.224 33.776,16 33.5,16 l -19,0 C 14.224,16 14,16.224 14,16.5 l 0,11 c 0,0.276 0.224,0.5 0.5,0.5 l 14.5,0 0,0.5 c 0,0.16 0.03213,0.310078 0.07813,0.455078 0.005,0.014 0.0028,0.03192 0.0078,0.04492 L 13,29 13,16.5 C 13,15.673 13.673,15 14.5,15 Z m 0.5,2 18,0 0,1 -2.5,0 C 29.673,18 29,18.673 29,19.5 l 0,7.5 -14,0 0,-10 z m 15.5,2 3,0 2,0 c 0.275,0 0.5,0.225 0.5,0.5 l 0,9 c 0,0.275 -0.225,0.5 -0.5,0.5 l -5,0 C 30.225,29 30,28.775 30,28.5 l 0,-1 0,-8 C 30,19.225 30.225,19 30.5,19 Z m 2,1 c -0.276,0 -0.5,0.224 -0.5,0.5 0,0.276 0.224,0.5 0.5,0.5 l 1,0 C 33.776,21 34,20.776 34,20.5 34,20.224 33.776,20 33.5,20 l -1,0 z M 33,27 A 0.5,0.5 0 0 0 32.5,27.5 0.5,0.5 0 0 0 33,28 0.5,0.5 0 0 0 33.5,27.5 0.5,0.5 0 0 0 33,27 Z m -22,3 1.5,0 8.5,0 c 0,0.552 0.448,1 1,1 l 4,0 c 0.552,0 1,-0.448 1,-1 l 3.5,0 5,0 1.5,0 0,0.5 c 0,0.827 -0.673,1.5 -1.5,1.5 l -23,0 C 11.673,32 11,31.327 11,30.5 L 11,30 Z"></path></svg>