<svg xmlns="http://www.w3.org/2000/svg" xmlns:xlink="http://www.w3.org/1999/xlink" width="48" height="48" viewBox="0 0 48 48" id="loan"><defs><linearGradient id="b" x1="1056.035" x2="1031.176" y1="544.13" y2="517.701" gradientTransform="translate(-1581.737 -793.02) scale(1.53785)" gradientUnits="userSpaceOnUse" xlink:href="#a"></linearGradient><linearGradient id="a"><stop offset="0" stop-color="#5a5a5a"></stop><stop offset="1" stop-color="#656e85"></stop></linearGradient></defs><rect width="48" height="48" fill="url(#b)" rx="10.144" ry="10.144"></rect><path fill="#fff" d="m 24.958984,10 c -0.826999,0 -1.5,0.673 -1.5,1.5 l 0,0.5 c 0,0.054 0.0084,0.107203 0.02539,0.158203 L 23.765625,13 22.5,13 c -0.189,0 -0.362265,0.106391 -0.447266,0.275391 L 21.189453,15 20.5,15 l -0.541016,0 0,-0.5 c 10e-7,-0.276 -0.223999,-0.5 -0.5,-0.5 L 12.5,14 c -0.276,0 -0.5,0.224 -0.5,0.5 0,0.276 0.223,0.5 0.5,0.5 l 2.458984,0 0,8 L 12.5,23 c -0.276,0 -0.5,0.224 -0.5,0.5 0,0.276 0.223,0.5 0.5,0.5 l 6.958984,0 c 0.276,0 0.5,-0.224 0.5,-0.5 l 0,-0.5 1.332032,0 0.853515,0.853516 c 0.085,0.085 0.19936,0.131625 0.31836,0.140625 l -5.103516,6.80664 c -1.029,1.373 -1.192781,3.178891 -0.425781,4.712891 0.767,1.534 2.31039,2.486328 4.02539,2.486328 l 11,0 c 1.715,0 3.257391,-0.952328 4.025391,-2.486328 0.767,-1.534 0.603219,-3.340891 -0.425781,-4.712891 l -5.296875,-7.0625 c 0.395,-0.27 0.65625,-0.724281 0.65625,-1.238281 0,-0.386 -0.148672,-0.734 -0.388672,-1 0.24,-0.266 0.388672,-0.614 0.388672,-1 0,-0.386 -0.148672,-0.734 -0.388672,-1 0.24,-0.266 0.388672,-0.614 0.388672,-1 0,-0.386 -0.148672,-0.734 -0.388672,-1 0.24,-0.266 0.388672,-0.614 0.388672,-1 0,-0.767 -0.579266,-1.393422 -1.322266,-1.482422 l 0.34375,-1.376953 0.492188,-1.482422 c 0.017,-0.051 0.02734,-0.104203 0.02734,-0.158203 l 0,-0.5 c 0,-0.827 -0.673,-1.5 -1.5,-1.5 -0.385999,0 -0.734,0.150625 -1,0.390625 -0.265999,-0.24 -0.614,-0.390625 -1,-0.390625 -0.385999,0 -0.733999,0.150625 -1,0.390625 -0.265999,-0.24 -0.614,-0.390625 -1,-0.390625 z m 0,1 c 0.276,0 0.5,0.225 0.5,0.5 l 0,0.5 c 0,0.276 0.224001,0.5 0.5,0.5 0.276,0 0.5,-0.224 0.5,-0.5 l 0,-0.5 c 0,-0.275 0.224001,-0.5 0.5,-0.5 0.276,0 0.5,0.225 0.5,0.5 l 0,0.5 c 0,0.276 0.224001,0.5 0.5,0.5 0.276,0 0.5,-0.224 0.5,-0.5 l 0,-0.5 c 0,-0.275 0.224001,-0.5 0.5,-0.5 0.276,0 0.5,0.225 0.5,0.5 l 0,0.419922 -0.474609,1.421875 c -0.002,0.006 4.7e-5,0.01253 -0.002,0.01953 -0.002,0.006 -0.0068,0.01253 -0.0078,0.01953 L 28.56836,15 25.347656,15 24.94336,13.378906 c -0.002,-0.007 -0.0078,-0.01253 -0.0098,-0.01953 -0.002,-0.006 4.7e-5,-0.01258 -0.002,-0.01758 l -0.47461,-1.421875 0,-0.419922 0.002,0 c 0,-0.275 0.224001,-0.5 0.5,-0.5 z m -2.15039,3 1.259766,0 0.40625,1.621094 c 0.004,0.014 0.01258,0.02606 0.01758,0.03906 0.008,0.024 0.0173,0.04636 0.0293,0.06836 0.017,0.032 0.03755,0.05989 0.06055,0.08789 0.015,0.018 0.02988,0.03578 0.04687,0.05078 0.009,0.008 0.01444,0.01934 0.02344,0.02734 0.001,10e-4 0.0029,9.53e-4 0.0039,0.002 0.021,0.016 0.04536,0.02511 0.06836,0.03711 0.018,0.01 0.03469,0.0223 0.05469,0.0293 0.056,0.024 0.114731,0.03711 0.177731,0.03711 l 4,0 0.458985,0 c 0.276,0 0.5,0.225 0.5,0.5 0,0.275 -0.222047,0.5 -0.498047,0.5 l -2.347656,0 c -0.276,0 -0.5,0.224 -0.5,0.5 0,0.276 0.224,0.5 0.5,0.5 l 2.347656,0 c 0.276,0 0.5,0.225 0.5,0.5 0,0.275 -0.224,0.5 -0.5,0.5 l -2.347656,0 c -0.276,0 -0.5,0.224 -0.5,0.5 0,0.276 0.224,0.5 0.5,0.5 l 2.347656,0 c 0.276,0 0.5,0.225 0.5,0.5 0,0.275 -0.224,0.5 -0.5,0.5 l -2.347656,0 c -0.276,0 -0.5,0.224 -0.5,0.5 0,0.276 0.224,0.5 0.5,0.5 l 2.347656,0 c 0.276,0 0.5,0.225 0.5,0.5 0,0.275 -0.224,0.5 -0.5,0.5 l -0.917969,0 -0.779297,0 -0.648437,0 -1.875,0 -1.738282,0 -0.751953,0 -0.853515,-0.853516 c -0.046,-0.046 -0.103063,-0.08337 -0.164063,-0.109375 -0.062,-0.02504 -0.124453,-0.03715 -0.189453,-0.03715 l -1.541016,0 0,-6 0.541016,0 1,0 c 0.087,0 0.165328,-0.02741 0.236328,-0.06641 0.019,-0.01 0.03378,-0.02316 0.05078,-0.03516 0.056,-0.041 0.101718,-0.09039 0.136718,-0.150391 0.006,-0.01 0.01844,-0.01244 0.02344,-0.02344 l 0.861328,-1.724599 z m -6.84961,1 3,0 0,0.5 0,7 0,0.5 -3,0 0,-8 z m 1.5,6 a 0.5,0.5 0 0 0 -0.5,0.5 0.5,0.5 0 0 0 0.5,0.5 0.5,0.5 0 0 0 0.5,-0.5 0.5,0.5 0 0 0 -0.5,-0.5 z m 6.25,3 0.804688,0 -0.425781,1.349609 c -0.083,0.264 0.06317,0.543954 0.326172,0.626953 0.05,0.016 0.10139,0.02344 0.15039,0.02344 0.212,0 0.409563,-0.136609 0.476563,-0.349609 L 25.5625,24 l 0.396484,0 0,1.5 c 0,0.276 0.224,0.5 0.5,0.5 0.276,0 0.5,-0.224 0.5,-0.5 l 0,-1.5 0.113282,0 0.283203,0 0.521484,1.650391 c 0.083,0.263 0.364953,0.409171 0.626953,0.326171 0.263,-0.083 0.409172,-0.362953 0.326172,-0.626953 L 28.402344,24 l 0.0957,0 0.708984,0 5.550782,7.398438 c 0.813,1.083999 0.936078,2.455015 0.330078,3.666015 C 34.481891,36.275453 33.313985,37 31.958984,37 l -11,0 c -1.353999,0 -2.525859,-0.723547 -3.130859,-1.935547 -0.606,-1.211 -0.481922,-2.582015 0.330078,-3.666015 L 23.708984,24 Z m 0.75,3.972656 c -0.275999,0 -0.5,0.224 -0.5,0.5 0,0.276 0.224001,0.5 0.5,0.5 l 1,0 c 0.657001,0 1.20911,0.426625 1.41211,1.015625 l -2.41211,0 c -0.275999,0 -0.5,0.224 -0.5,0.5 0,0.276 0.224001,0.5 0.5,0.5 l 2.402344,0 c -0.211,0.573 -0.757344,0.984375 -1.402344,0.984375 l -1,0 c -0.275999,0 -0.5,0.224 -0.5,0.5 0,0.003 9.54e-4,0.0048 0.002,0.0078 -0.002,0.131 0.04453,0.262328 0.144531,0.361328 l 3,3 c 0.098,0.098 0.225515,0.146484 0.353515,0.146484 0.128001,0 0.255516,-0.04948 0.353516,-0.146484 0.195,-0.195 0.195,-0.512031 0,-0.707031 l -2.179687,-2.179688 c 1.122,-0.079 2.045484,-0.890797 2.271484,-1.966797 l 0.554687,0 c 0.276,0 0.5,-0.224 0.5,-0.5 0,-0.276 -0.223999,-0.5 -0.5,-0.5 l -0.548828,0 c -0.075,-0.378 -0.23889,-0.719625 -0.46289,-1.015625 l 1.011718,0 c 0.276,0 0.5,-0.224 0.5,-0.5 0,-0.276 -0.224,-0.5 -0.5,-0.5 l -3,0 -1,0 z"></path></svg>