<svg xmlns="http://www.w3.org/2000/svg" xmlns:xlink="http://www.w3.org/1999/xlink" width="28" height="28" id="home"><defs><linearGradient id="b" x1="906.952" x2="931.379" y1="515.915" y2="546.094" gradientTransform="translate(-810.086 -462.595) scale(.89708)" gradientUnits="userSpaceOnUse" xlink:href="#a"></linearGradient><linearGradient id="a"><stop offset="0" stop-color="#ffd800"></stop><stop offset="1" stop-color="#ff6100"></stop></linearGradient></defs><rect width="28" height="28" fill="url(#b)" rx="5.917" ry="5.917"></rect><path style="line-height:normal;text-indent:0;text-align:start;text-decoration-line:none;text-decoration-style:solid;text-decoration-color:#000;text-transform:none;block-progression:tb;isolation:auto;mix-blend-mode:normal" fill="#fff" d="M14 5.95c-.261 0-.536.078-.754.296L7.854 11.24l-.008.006c-.318.318-.412.815-.23 1.178.166.333.508.533.886.564L8.5 13v7c0 .261.095.528.283.717.189.188.456.283.717.283h3c.261 0 .528-.095.717-.283.188-.189.283-.456.283-.717v-2.9c0 .016.007-.025.041-.059.034-.034.075-.041.059-.041h.8c-.016 0 .025.007.059.041.034.034.041.075.041.059V20c0 .261.095.528.283.717.189.188.456.283.717.283h3c.261 0 .528-.095.717-.283.188-.189.283-.456.283-.717v-7l-.002-.012c.378-.03.72-.23.887-.564.18-.363.087-.86-.23-1.178l-.009-.006-5.392-4.994A1.041 1.041 0 0 0 14 5.95zm0 1c.039 0 .065.021.047.003l.006.008 5.394 4.992c.082.082.037.036.043.024.006-.013-.006.023-.09.023H8.6c-.084 0-.096-.036-.09-.023.006.012-.04.058.043-.024l5.394-4.992.006-.008c-.018.018.008-.004.047-.004zM9.5 13h9v7h-3v-2.9c0-.317-.143-.575-.334-.766A1.073 1.073 0 0 0 14.4 16h-.8c-.317 0-.575.143-.766.334a1.073 1.073 0 0 0-.334.766V20h-3v-7z" color="#000" font-family="sans-serif" font-weight="400" overflow="visible"></path></svg>