<svg xmlns="http://www.w3.org/2000/svg" xmlns:xlink="http://www.w3.org/1999/xlink" width="64" height="64" id="money"><defs><linearGradient id="b" x1="906.952" x2="931.379" y1="515.915" y2="546.094" gradientTransform="translate(142.888 38.136) scale(1.02524)" gradientUnits="userSpaceOnUse" xlink:href="#a"></linearGradient><linearGradient id="a"><stop offset="0" stop-color="#ffd800"></stop><stop offset="1" stop-color="#ff6100"></stop></linearGradient></defs><g transform="translate(-1068.7 -566.815)"><rect width="32" height="32" x="1068.701" y="566.815" fill="url(#b)" rx="6.763" ry="6.763"></rect><path fill="#fff" d="M1077.454 575.772a.418.418 0 0 0-.346.311l-.407 1.447h7.21l-6.29-1.746a.418.418 0 0 0-.167-.012zm-1.458 2.165a.423.423 0 0 0-.419.43v8.908c0 .235.183.418.418.418h17.41a.413.413 0 0 0 .418-.418v-8.908a.423.423 0 0 0-.418-.43h-17.41zm2.618 1.064H1090.715a.414.414 0 0 1 .394.394c.01.622.5 1.1 1.124 1.1h.012a.414.414 0 0 1 .395.395v3.802c0 .214-.193.412-.407.407-.627 0-1.124.484-1.124 1.112v.012a.412.412 0 0 1-.394.394h-12.065a.414.414 0 0 1-.394-.394c0-.623-.484-1.118-1.1-1.124a.414.414 0 0 1-.395-.407v-3.802c0-.206.188-.393.394-.394a1.095 1.095 0 0 0 1.1-1.1c.001-.195.165-.376.36-.395zm.036.406a1.505 1.505 0 0 1-1.495 1.495v3.802a1.51 1.51 0 0 1 1.495 1.519h12.065v-.012c0-.84.679-1.507 1.518-1.507h.012v-3.802h-.012a1.51 1.51 0 0 1-1.518-1.495h-12.065zm6.05.55a2.867 2.867 0 0 1 2.87 2.858c0 1.579-1.29 2.87-2.87 2.87a2.867 2.867 0 0 1-2.857-2.87 2.857 2.857 0 0 1 2.857-2.858zm0 .395a2.468 2.468 0 0 0-2.475 2.463 2.479 2.479 0 0 0 2.475 2.475 2.479 2.479 0 0 0 2.475-2.475 2.468 2.468 0 0 0-2.475-2.463zm9.53.048v2.212l.454-1.638a.422.422 0 0 0-.287-.526l-.167-.048zm-9.721.67h.335v.31c.372.045.608.246.717.622l-.454.191c-.09-.258-.231-.382-.419-.382a.304.304 0 0 0-.227.083.272.272 0 0 0-.084.204c0 .083.03.158.084.203.055.044.167.089.347.155.197.072.354.151.466.216.113.064.208.15.275.263a.754.754 0 0 1 .096.394.85.85 0 0 1-.203.586c-.138.155-.337.236-.598.263v.407h-.335v-.395c-.435-.045-.709-.304-.813-.765l.514-.132c.048.29.21.43.479.43.125 0 .216-.033.275-.095a.288.288 0 0 0 .084-.215c0-.09-.025-.168-.084-.215-.06-.047-.192-.108-.395-.18a2.433 2.433 0 0 1-.43-.179.717.717 0 0 1-.251-.263.788.788 0 0 1-.096-.395c0-.194.065-.37.179-.526.115-.155.292-.24.538-.275v-.31zm-9.326 1.912-.467 1.674a.429.429 0 0 0 .3.526l.167.048v-2.248zm10.283 5.106 6.313 1.758a.422.422 0 0 0 .526-.287l.406-1.471h-7.245z"></path></g></svg>