<svg xmlns="http://www.w3.org/2000/svg" xmlns:xlink="http://www.w3.org/1999/xlink" width="96" height="96" id="graph"><defs><linearGradient id="b" x1="1056.035" x2="1031.176" y1="544.13" y2="517.701" gradientTransform="translate(-3163.474 -629.677) scale(3.0757)" gradientUnits="userSpaceOnUse" xlink:href="#a"></linearGradient><linearGradient id="a"><stop offset="0" stop-color="#5a5a5a"></stop><stop offset="1" stop-color="#656e85"></stop></linearGradient></defs><g transform="translate(0 -956.362)"><rect width="96" height="96" y="956.362" fill="url(#b)" rx="20.288" ry="20.288"></rect><path style="line-height:normal;text-indent:0;text-align:start;text-decoration-line:none;text-decoration-style:solid;text-decoration-color:#000;text-transform:none;block-progression:tb;isolation:auto;mix-blend-mode:normal" fill="#fff" fill-rule="evenodd" d="M21.967 973.363c-.536 0-.967.462-.967 1.035v53.965h-1.965c-.573 0-1.035.43-1.035.966v.066c0 .536.462.967 1.035.967H21v1.965c0 .573.431 1.035.967 1.035h.066c.536 0 .967-.462.967-1.035v-1.964h53.965c.573 0 1.035-.432 1.035-.967v-.066c0-.536-.462-.967-1.035-.967H23v-53.965c0-.573-.431-1.035-.967-1.035h-.066zm54.912 13.97a3 3 0 0 0-.299.03H69l3.664 3.664-7.252 9.23-4.668-3.334a3 3 0 0 0-4.121.611l-8.291 10.778-6.668-4.446a3 3 0 0 0-4.006.623L24 1021.562v5.8h3.041l13.584-16.976 6.71 4.473a3 3 0 0 0 4.042-.666l8.236-10.705 4.643 3.316a3 3 0 0 0 4.103-.588l8.579-10.916L80 998.363v-7.66a3 3 0 0 0 0-.756v-2.584h-2.543a3 3 0 0 0-.578-.03z" color="#000" font-family="sans-serif" font-weight="400" overflow="visible"></path></g></svg>