<svg xmlns="http://www.w3.org/2000/svg" xmlns:xlink="http://www.w3.org/1999/xlink" width="28" height="28" id="bed"><defs><linearGradient id="b" x1="1073.403" x2="1097.116" y1="516.451" y2="544.308" gradientTransform="translate(-958.925 -462.595) scale(.89708)" gradientUnits="userSpaceOnUse" xlink:href="#a"></linearGradient><linearGradient id="a"><stop offset="0" stop-color="#16ff6a"></stop><stop offset="1" stop-color="#0090a5"></stop></linearGradient></defs><rect width="28" height="28" fill="url(#b)" rx="5.917" ry="5.917"></rect><path fill="#fff" d="M12.884 6.222c-.313.002-.63.036-.944.098a.5.5 0 0 0-.056.01.5.5 0 0 0-.05.011.5.5 0 0 0-.019.006c-1.995.447-3.407 2.12-3.744 4.049-.007.038-.004.077-.01.115a5.097 5.097 0 0 0 .036 1.81.5.5 0 0 0 .709.36l1.69-.375a.5.5 0 0 0 .001 0l2.234-.51 1.15 5.422h-1.687L9.54 14.566a1.485 1.485 0 0 0-1.053-.434 1.49 1.49 0 0 0-1.054.434 1.5 1.5 0 0 0 0 2.107l2.8 2.799c.111.11.194.237.33.39.095.107.256.234.45.303l-.526.854c-.1.2-.1.5.2.7.2.1.499.1.699-.2l.765-1.3H17.722l.765 1.3c.1.2.4.3.7.2.2-.1.299-.5.199-.7l-.43-.8h.531c.411 0 .802-.145 1.078-.42a1.52 1.52 0 0 0 .422-1.08c0-.412-.146-.803-.422-1.079a1.516 1.516 0 0 0-1.078-.422H14.88l-1.207-5.637 3.715-.85a.5.5 0 0 0 .494-.587.5.5 0 0 0-.01-.047c-.004-.017-.011-.032-.016-.049-.443-1.977-2.084-3.384-3.99-3.738-.321-.06-.65-.09-.982-.088Zm-.69 1.084c.058-.013.141-.006.305.11.164.115.374.338.582.654.369.558.731 1.401 1.012 2.388l-2.291.526c-.166-.985-.194-1.897-.096-2.567.057-.384.155-.689.258-.873.103-.184.18-.227.23-.238Zm1.57.014c.169.035.333.085.495.14 1.09.396 1.972 1.27 2.42 2.408l-1.612.368c-.301-1.085-.693-2.025-1.15-2.717-.049-.074-.102-.131-.152-.2Zm-2.958.54c-.032.135-.067.265-.088.41-.122.828-.081 1.846.11 2.936l-.552.125-1.205.268c-.11-1.463.54-2.9 1.682-3.707.017-.012.036-.02.053-.031zm-2.32 7.245c.117 0 .235.056.347.168l2.947 2.945h7.707c.19 0 .297.055.371.129.074.074.13.182.13.371s-.056.3-.13.373c-.074.074-.182.127-.37.127h-8.169c-.001-.005.007 0-.01-.02-.063-.07-.18-.244-.369-.433l-2.8-2.799c-.224-.223-.224-.47 0-.693.111-.112.228-.168.345-.168z"></path></svg>