<svg xmlns="http://www.w3.org/2000/svg" xmlns:xlink="http://www.w3.org/1999/xlink" width="48" height="48" viewBox="0 0 48 48" id="supermarket"><defs><linearGradient id="b" x1="906.952" x2="931.379" y1="515.915" y2="546.094" gradientTransform="translate(-1388.719 -793.02) scale(1.53785)" gradientUnits="userSpaceOnUse" xlink:href="#a"></linearGradient><linearGradient id="a"><stop offset="0" stop-color="#ffd800"></stop><stop offset="1" stop-color="#ff6100"></stop></linearGradient></defs><rect width="48" height="48" fill="url(#b)" rx="10.144" ry="10.144"></rect><path fill="#fff" d="m 14.5,14 c -0.276,0 -0.5,0.224 -0.5,0.5 0,0.276 0.224,0.5 0.5,0.5 l 2.132812,0 c 0.247,0 0.461094,0.185687 0.496094,0.429686 l 1.804688,12.634766 c 0.023,0.158001 -0.03344,0.319641 -0.148438,0.431641 l -0.960937,0.923828 c -0.444,0.426001 -0.583516,1.068625 -0.353516,1.640625 0.23,0.571 0.776578,0.941406 1.392578,0.941406 l 1.416016,0 c -0.172,0.295001 -0.277344,0.634 -0.277344,1 0,0.366 0.105344,0.705 0.277344,1 l -2.341797,0 c -0.276,0 -0.5,0.224 -0.5,0.5 0,0.276001 0.224,0.5 0.5,0.5 l 3.9375,0 c 0.015,0 0.02797,-0.0088 0.04297,-0.0098 0.028,9.99e-4 0.05403,0.0098 0.08203,0.0098 1.103,0 2,-0.896999 2,-2 0,-0.366 -0.105344,-0.704999 -0.277344,-1 l 4.556641,0 c -0.172,0.295001 -0.277344,0.634 -0.277344,1 0,0.366 0.105344,0.705 0.277344,1 l -1.341797,0 c -0.276,0 -0.5,0.224 -0.5,0.5 0,0.276001 0.224,0.5 0.5,0.5 l 2.9375,0 c 0.015,0 0.02797,-0.0088 0.04297,-0.0098 0.028,9.99e-4 0.05403,0.0098 0.08203,0.0098 1.103,0 2,-0.896999 2,-2 0,-0.366 -0.105344,-0.704999 -0.277344,-1 l 1.652344,0 c 0.276,0 0.5,-0.224 0.5,-0.5 0,-0.276 -0.224,-0.501953 -0.5,-0.501953 l -14.513672,0 c -0.313,0 -0.435844,-0.2395 -0.464844,-0.3125 -0.029,-0.073 -0.108812,-0.330828 0.117188,-0.548828 l 0.96289,-0.921875 c 0.348001,-0.334 0.513313,-0.818922 0.445313,-1.294922 l -0.130859,-0.921875 10.927734,0 c 0.689,0 1.288078,-0.467719 1.455078,-1.136719 l 1.521484,-6.080078 c 0.108001,-0.433 0.01986,-0.888047 -0.24414,-1.248047 -0.264,-0.36 -0.669235,-0.583328 -1.115234,-0.611328 L 18.365234,17.023436 18.117188,15.287109 C 18.012187,14.553108 17.374813,14 16.632812,14 L 14.5,14 Z M 18.509766,18.035155 23,18.324218 23,19.828124 18.724609,19.533202 18.509766,18.035155 Z M 24,18.388671 l 4,0.257812 0,1.527344 -4,-0.277344 0,-1.507812 z m 5,0.322266 3.271484,0.210937 c 0.203,0.013 0.320094,0.135078 0.371094,0.205078 0.052,0.07 0.131031,0.218016 0.08203,0.416016 l -0.234375,0.939453 -3.490234,-0.240234 0,-1.53125 z M 18.869141,20.544921 23,20.830077 23,22.839843 19.158203,22.562499 18.869141,20.544921 Z M 24,20.90039 l 4,0.27539 0,2.021485 -4,-0.28711 0,-2.009765 z m 5,0.34375 3.242188,0.224609 -0.498047,1.996094 L 29,23.267577 29,21.24414 Z M 19.300781,23.576171 23,23.841796 l 0,2.158203 -3.351562,0 -0.347657,-2.423828 z M 24,23.914061 l 4,0.285157 0,1.800781 -4,0 0,-2.085938 z m 5,0.357422 2.498047,0.179688 -0.292969,1.169922 c -0.057,0.223 -0.256328,0.378906 -0.486328,0.378906 l -1.71875,0 0,-1.728516 z m -7,7.728516 c 0.551,0 1,0.448 1,1 0,0.552 -0.449,1 -1,1 -0.551,0 -1,-0.448 -1,-1 0,-0.552 0.449,-1 1,-1 z m 8,0 c 0.551,0 1,0.448 1,1 0,0.552 -0.449,1 -1,1 -0.551,0 -1,-0.448 -1,-1 0,-0.552 0.449,-1 1,-1 z m -14.0625,1.966797 c -0.1275,0 -0.254609,0.04808 -0.349609,0.142578 -0.1,0.091 -0.150391,0.221563 -0.150391,0.351563 0,0.07 0.0091,0.128499 0.03906,0.1875 0.02,0.061 0.06133,0.120156 0.111328,0.160156 0.09,0.101 0.21961,0.152344 0.349609,0.152344 0.07,0 0.129454,-0.01125 0.189454,-0.03125 0.06,-0.03 0.120156,-0.06914 0.160156,-0.119141 0.05,-0.04 0.09133,-0.100156 0.111328,-0.160156 0.03,-0.06 0.03906,-0.119453 0.03906,-0.189453 0,-0.130001 -0.05039,-0.260563 -0.150391,-0.351563 -0.095,-0.0945 -0.222104,-0.142578 -0.349604,-0.142578 z m 9.496094,0 c -0.12875,0 -0.255703,0.04808 -0.345703,0.142578 -0.1,0.091 -0.150391,0.221563 -0.150391,0.351563 0,0.14 0.05039,0.25961 0.150391,0.349609 0.09,0.101 0.219609,0.150391 0.349609,0.150391 0.07,0 0.129453,-0.01125 0.189453,-0.03125 0.06,-0.03 0.120156,-0.06914 0.160156,-0.119141 0.05,-0.04 0.09133,-0.100156 0.111329,-0.160156 0.03,-0.06 0.03906,-0.119453 0.03906,-0.189453 0,-0.13 -0.05039,-0.260563 -0.150391,-0.351563 -0.095,-0.0945 -0.224765,-0.142578 -0.353515,-0.142578 z"></path></svg>