<svg xmlns="http://www.w3.org/2000/svg" xmlns:xlink="http://www.w3.org/1999/xlink" width="48" height="48" viewBox="0 0 48 48" id="metro"><defs><linearGradient id="b" x1="868.253" x2="937.656" y1="521.354" y2="588.736" gradientTransform="translate(-1326.968 -793.02) scale(1.53785)" gradientUnits="userSpaceOnUse" xlink:href="#a"></linearGradient><linearGradient id="a"><stop offset="0" stop-color="#24f3d2"></stop><stop offset=".394" stop-color="#0674f0"></stop><stop offset=".507" stop-color="#6961b5"></stop><stop offset=".813" stop-color="#f34660"></stop><stop offset="1" stop-color="#ee078d"></stop></linearGradient></defs><g><rect width="48" height="48" fill="url(#b)" rx="10.144" ry="10.144"></rect><path fill="#fff" d="m 20.499022,11 c -0.827,0 -1.5,0.673 -1.5,1.5 l 0,0.5 -0.785156,0 c -1.806001,0 -3.303422,1.355344 -3.482422,3.152344 l -1.400391,14 c -0.099,0.982 0.226672,1.965265 0.888672,2.697265 0.197,0.218 0.425016,0.396641 0.666016,0.556641 l -1.738282,1.740234 -0.0019,0 -0.998047,1 c -0.195,0.195 -0.195,0.512032 0,0.707032 0.096,0.098 0.22356,0.146484 0.35156,0.146484 0.128,0 0.255515,-0.04948 0.353515,-0.146484 L 13.706053,36 l 20.585938,0 0.853515,0.853516 c 0.097,0.097 0.225516,0.146484 0.353516,0.146484 0.128,0 0.255516,-0.04948 0.353516,-0.146484 0.195,-0.196 0.195,-0.511032 0,-0.707032 l -0.998047,-1 -0.002,0 -1.738282,-1.740234 c 0.241,-0.16 0.469016,-0.338641 0.666016,-0.556641 0.662,-0.732 0.986672,-1.715265 0.888672,-2.697265 l -1.400344,-14 C 33.087553,14.355344 31.590178,13 29.784178,13 l -0.785156,0 0,-0.5 c 0,-0.827 -0.673,-1.5 -1.5,-1.5 l -7,0 z m 0,1 7,0 c 0.275,0 0.5,0.224 0.5,0.5 l 0,0.5 -8,0 0,-0.5 c 0,-0.276 0.225,-0.5 0.5,-0.5 z m -2.285156,2 0.785156,0 10,0 0.785156,0 c 1.29,0 2.359281,0.968953 2.488282,2.251953 l 1.398437,14 c 0.069,0.701 -0.161766,1.402781 -0.634766,1.925781 -0.408,0.451 -0.967406,0.722016 -1.566406,0.791016 L 31.362303,31 l 0.886719,0 c 0.144,0 0.28,-0.06292 0.375,-0.169922 0.095,-0.107 0.139094,-0.250578 0.121094,-0.392578 l -0.25,-2 C 32.464116,28.1875 32.251022,28 31.999022,28 L 31.198241,28 30.61621,17.417969 C 30.574209,16.622969 29.915163,16 29.118163,16 l -10.238282,0 c -0.797,0 -1.456047,0.622969 -1.498047,1.417969 L 16.799803,28 15.999022,28 c -0.252,0 -0.465094,0.1875 -0.496094,0.4375 l -0.25,2 c -0.018,0.142 0.02609,0.285578 0.121094,0.392578 0.095,0.107 0.231,0.169922 0.375,0.169922 l 0.886718,0 -0.107421,1.970703 c -0.598,-0.07 -1.15936,-0.342969 -1.56836,-0.792969 -0.473,-0.522 -0.703765,-1.224781 -0.634765,-1.925781 l 1.40039,-14 C 15.853584,14.968953 16.923865,14 18.213866,14 Z m 0.666015,3 0.220703,0 c 0,0.004 -0.002,0.0068 -0.002,0.0098 l 0.164063,7.835937 C 19.434694,26.073703 20.498303,27 21.737303,27 l 4.521485,0 c 1.239,0 2.304468,-0.926891 2.480468,-2.212891 l 0.160157,-7.777343 c 0,-0.004 -0.002,-0.0068 -0.002,-0.0098 l 0.220703,0 c 0.266,0 0.485,0.207656 0.5,0.472656 L 30.196288,28 28.499022,28 c -0.276,0 -0.5,0.224 -0.5,0.5 l 0,2 c 0,0.276 0.224,0.5 0.5,0.5 l 1.861328,0 0.111328,2 -12.945313,0 0.111329,-2 1.861328,0 c 0.276,0 0.5,-0.224 0.5,-0.5 l 0,-2 c 0,-0.276 -0.224,-0.5 -0.5,-0.5 l -1.697266,0 0.578125,-10.527344 c 0.016,-0.264 0.234,-0.472656 0.5,-0.472656 z m 1.21875,0 7.800782,0 -0.154297,7.707031 C 27.642116,25.443031 27.003741,26 26.260741,26 l -4.521485,0 c -0.743,0 -1.382468,-0.555422 -1.480468,-1.232422 L 20.098631,17 Z m -3.658203,12 2.558594,0 0,1 -2.683594,0 0.125,-1 z m 12.558594,0 1.726562,0 0.02734,0 0.804688,0 0.125,1 -2.68359,0 0,-1 z m 3.144531,4.847656 c 0.001,0.002 9.53e-4,0.0049 0.002,0.0059 L 33.291991,35 14.706053,35 15.852537,33.853516 c 0.002,-0.002 9.53e-4,-0.0029 0.002,-0.0039 C 16.16649,33.938609 16.485475,34 16.813475,34 l 0.185547,0 14,0 0.185547,0 c 0.329,0 0.647984,-0.06234 0.958984,-0.152344 z"></path></g></svg>